HIERARCHY
ROOT Hips
{
	OFFSET 0.000000 0.000000 0.000000
	CHANNELS 6 Xposition Yposition Zposition Xrotation Yrotation Zrotation
	JOINT LeftUpLeg_virtual
	{
		OFFSET 0.000000 0.000000 0.000000
		CHANNELS 3 Xrotation Yrotation Zrotation
		JOINT LeftUpLeg
		{
			OFFSET 13.026900 -6.336304 -1.092800
			CHANNELS 3 Xrotation Yrotation Zrotation
			JOINT LeftLeg
			{
				OFFSET 0.524474 -46.096886 9.782700
				CHANNELS 3 Xrotation Yrotation Zrotation
				JOINT LeftFoot
				{
					OFFSET -0.524474 -53.427422 -12.948200
					CHANNELS 3 Xrotation Yrotation Zrotation
					JOINT LeftToeBase
					{
						OFFSET 0.192200 -14.009700 16.364100
						CHANNELS 3 Xrotation Yrotation Zrotation
						JOINT LeftToe_End
						{
							OFFSET -1.784700 -0.561700 9.474800
							CHANNELS 3 Xrotation Yrotation Zrotation
							End Site
							{
								OFFSET 0 0 0
							}
						}
					}
				}
			}
		}
	}
	JOINT RightUpLeg_virtual
	{
		OFFSET 0.000000 0.000000 0.000000
		CHANNELS 3 Xrotation Yrotation Zrotation
		JOINT RightUpLeg
		{
			OFFSET -12.883000 -6.336304 -1.092800
			CHANNELS 3 Xrotation Yrotation Zrotation
			JOINT RightLeg
			{
				OFFSET -0.524587 -46.096825 9.782800
				CHANNELS 3 Xrotation Yrotation Zrotation
				JOINT RightFoot
				{
					OFFSET 0.524587 -53.427383 -12.948300
					CHANNELS 3 Xrotation Yrotation Zrotation
					JOINT RightToeBase
					{
						OFFSET -0.192200 -14.009700 16.364100
						CHANNELS 3 Xrotation Yrotation Zrotation
						JOINT RightToe_End
						{
							OFFSET 1.784700 -0.561700 9.474800
							CHANNELS 3 Xrotation Yrotation Zrotation
							End Site
							{
								OFFSET 0 0 0
							}
						}
					}
				}
			}
		}
	}
	JOINT Spine_virtual
	{
		OFFSET 0.000000 0.000000 0.000000
		CHANNELS 3 Xrotation Yrotation Zrotation
		JOINT Spine
		{
			OFFSET 0.072000 7.257294 -0.789700
			CHANNELS 3 Xrotation Yrotation Zrotation
			JOINT Spine1
			{
				OFFSET 0.000000 12.508769 -0.658067
				CHANNELS 3 Xrotation Yrotation Zrotation
				JOINT Spine1_split
				{
					OFFSET 0.000000 12.508769 -0.658067
					CHANNELS 3 Xrotation Yrotation Zrotation
					JOINT Spine2
					{
						OFFSET 0.000000 12.508769 -0.658067
						CHANNELS 3 Xrotation Yrotation Zrotation
						JOINT Neck_virtual
						{
							OFFSET 0.000000 0.000000 0.000000
							CHANNELS 3 Xrotation Yrotation Zrotation
							JOINT Neck
							{
								OFFSET 0.000000 14.033295 7.520400
								CHANNELS 3 Xrotation Yrotation Zrotation
								JOINT Head
								{
									OFFSET 0.000000 8.198502 5.703100
									CHANNELS 3 Xrotation Yrotation Zrotation
									JOINT HeadTop_End
									{
										OFFSET 0.000000 17.760803 13.332701
										CHANNELS 3 Xrotation Yrotation Zrotation
										End Site
										{
											OFFSET 0 0 0
										}
									}
								}
							}
						}
						JOINT LeftShoulder_virtual
						{
							OFFSET 0.000000 0.000000 0.000000
							CHANNELS 3 Xrotation Yrotation Zrotation
							JOINT LeftShoulder
							{
								OFFSET 6.292450 5.785301 -0.669000
								CHANNELS 3 Xrotation Yrotation Zrotation
								JOINT LeftShoulder_split
								{
									OFFSET 6.292450 5.785301 -0.669000
									CHANNELS 3 Xrotation Yrotation Zrotation
									JOINT LeftArm
									{
										OFFSET 13.907140 -6.093903 1.965100
										CHANNELS 3 Xrotation Yrotation Zrotation
										JOINT LeftForeArm
										{
											OFFSET 34.140198 0.000000 0.000000
											CHANNELS 3 Xrotation Yrotation Zrotation
											JOINT LeftHand
											{
												OFFSET 40.960209 0.000000 0.000000
												CHANNELS 3 Xrotation Yrotation Zrotation
												End Site
												{
													OFFSET 0 0 0
												}
											}
										}
									}
								}
							}
						}
						JOINT RightShoulder_virtual
						{
							OFFSET 0.000000 0.000000 0.000000
							CHANNELS 3 Xrotation Yrotation Zrotation
							JOINT RightShoulder
							{
								OFFSET -6.292450 5.785301 -0.669000
								CHANNELS 3 Xrotation Yrotation Zrotation
								JOINT RightShoulder_split
								{
									OFFSET -6.292450 5.785301 -0.669000
									CHANNELS 3 Xrotation Yrotation Zrotation
									JOINT RightArm
									{
										OFFSET -13.907140 -6.093903 1.965100
										CHANNELS 3 Xrotation Yrotation Zrotation
										JOINT RightForeArm
										{
											OFFSET -34.140198 0.000000 0.000000
											CHANNELS 3 Xrotation Yrotation Zrotation
											JOINT RightHand
											{
												OFFSET -40.960209 0.000000 0.000000
												CHANNELS 3 Xrotation Yrotation Zrotation
												End Site
												{
													OFFSET 0 0 0
												}
											}
										}
									}
								}
							}
						}
					}
				}
			}
		}
	}
}
MOTION
Frames: 5
Frame Time: 0.03333333
3.517159 117.823036 -16.161083 0.000000 0.000000 0.000000 0.190476 13.454327 7.392322 -9.300307 15.280538 3.401740 7.113346 -0.404073 0.996305 1.591214 7.461307 -11.601764 2.787767 -2.136323 -1.070328 0.000000 0.000000 0.000000 0.611756 14.458879 7.289156 -8.081171 -7.848896 -6.710827 18.746279 2.530125 -2.632868 -13.417906 -14.585652 15.349723 3.916358 2.750411 -8.267910 0.000000 0.000000 0.000000 -1.424882 18.692493 7.153765 4.612305 -3.438960 4.161039 4.533392 -0.889419 2.577468 0.103656 -0.024878 -0.061747 0.000000 0.000000 0.000000 4.554155 1.221553 2.052102 -1.371522 7.319723 1.548288 -8.371372 -3.848673 -15.266641 0.000000 0.000000 0.000000 3.544486 -0.045773 1.127987 2.167679 -2.627637 -13.109408 1.721026 -3.482641 -0.880841 -2.223399 -3.509973 -35.360811 28.136245 -61.885366 20.044940 0.000000 0.000000 0.000000 5.877555 0.830557 1.769440 -2.965970 16.001253 15.398750 2.120721 1.761563 4.376545 -20.581935 17.905778 57.536551 -95.727492 81.583331 98.221173 0.000000 0.000000 0.000000 
3.476770 117.774971 -16.014507 0.000000 0.000000 0.000000 0.133793 13.152029 7.412561 -9.058696 15.586857 3.397503 7.051506 -0.506439 0.947557 1.327879 7.579509 -11.424125 3.027223 -2.184236 -1.062418 0.000000 0.000000 0.000000 0.569677 14.168124 7.310033 -7.923303 -7.422747 -6.723288 18.786302 2.332053 -2.558316 -13.566462 -14.626794 15.545896 3.846753 2.796677 -8.188797 0.000000 0.000000 0.000000 -1.478281 18.677506 7.128731 4.485138 -3.675395 4.032843 4.587167 -0.990226 2.656225 0.103171 -0.047065 -0.071073 0.000000 0.000000 0.000000 4.622736 1.099727 2.156771 -1.308188 7.178258 1.092314 -8.356467 -3.784538 -15.187487 0.000000 0.000000 0.000000 3.498050 -0.132360 1.223692 2.038091 -2.795885 -13.004215 1.810614 -3.108811 -1.007561 -1.871892 -3.584899 -35.291283 28.471570 -61.453425 20.161665 0.000000 0.000000 0.000000 5.895707 0.724090 1.882449 -3.021642 16.838336 15.724029 1.897096 1.957958 4.626468 -14.522498 20.360551 57.402371 -121.219520 80.823609 123.540145 0.000000 0.000000 0.000000 
3.471184 117.743195 -15.899876 0.000000 0.000000 0.000000 0.071915 12.909766 7.417711 -8.800706 15.855804 3.377662 6.971892 -0.556011 0.890227 1.018415 7.679218 -11.251290 3.253300 -2.233710 -1.057209 0.000000 0.000000 0.000000 0.528479 13.946189 7.310949 -7.737065 -6.947980 -6.733112 18.768597 2.128808 -2.486045 -13.665711 -14.666660 15.701727 3.796398 2.846793 -8.134232 0.000000 0.000000 0.000000 -1.545085 18.616195 7.086301 4.357447 -3.928920 3.869700 4.617895 -1.117502 2.690341 0.108700 -0.062437 -0.074868 0.000000 0.000000 0.000000 4.684004 0.954605 2.211370 -1.280704 7.016683 0.781645 -8.171309 -3.718126 -15.004122 0.000000 0.000000 0.000000 3.447823 -0.239676 1.278871 1.921304 -2.874195 -12.791075 1.865581 -2.716524 -1.088113 -1.364411 -4.006040 -35.306064 28.598938 -60.915288 20.159199 0.000000 0.000000 0.000000 5.902349 0.587861 1.948310 -3.020168 17.756334 15.849309 1.648946 2.031254 5.010481 -8.574419 23.914796 56.417356 -136.568567 79.339894 138.643797 0.000000 0.000000 0.000000 
3.507443 117.731316 -15.817478 0.000000 0.000000 0.000000 -0.000063 12.716170 7.404137 -8.533346 16.081771 3.353299 6.893324 -0.564944 0.826594 0.720689 7.746434 -11.092356 3.397918 -2.285849 -1.048360 0.000000 0.000000 0.000000 0.472490 13.746376 7.287422 -7.543514 -6.444854 -6.735121 18.715273 1.919475 -2.416832 -13.702725 -14.708925 15.805920 3.792357 2.898261 -8.106069 0.000000 0.000000 0.000000 -1.642751 18.469219 7.031264 4.238124 -4.185133 3.663234 4.627535 -1.263865 2.664590 0.112016 -0.069469 -0.066820 0.000000 0.000000 0.000000 4.730985 0.794475 2.192705 -1.303935 6.844956 0.631880 -7.805235 -3.648246 -14.674846 0.000000 0.000000 0.000000 3.400691 -0.366101 1.279077 1.820704 -2.830353 -12.451279 1.885563 -2.280730 -1.119235 -0.761599 -4.732789 -35.409190 28.581751 -60.352214 20.105710 0.000000 0.000000 0.000000 5.882424 0.419969 1.948626 -2.964778 18.776088 15.816005 1.436583 2.007986 5.325192 -2.668422 28.457133 54.209845 -144.929456 78.081090 146.745330 0.000000 0.000000 0.000000 
3.578807 117.730629 -15.766506 0.000000 0.000000 0.000000 -0.091412 12.547371 7.371788 -8.238910 16.291982 3.330719 6.828999 -0.528722 0.761325 0.449379 7.789857 -10.913427 3.458180 -2.341615 -1.039384 0.000000 0.000000 0.000000 0.388695 13.538376 7.242430 -7.358851 -5.934653 -6.725429 18.639390 1.714254 -2.351861 -13.667131 -14.747835 15.863792 3.831647 2.948158 -8.108270 0.000000 0.000000 0.000000 -1.785450 18.225699 6.967998 4.140825 -4.421714 3.400501 4.626837 -1.418785 2.574868 0.103771 -0.070432 -0.051649 0.000000 0.000000 0.000000 4.746036 0.641269 2.096221 -1.377491 6.676787 0.649818 -7.293805 -3.623403 -14.156328 0.000000 0.000000 0.000000 3.360343 -0.506220 1.221822 1.729357 -2.693736 -11.989519 1.834701 -1.875840 -1.130115 -0.164470 -5.664039 -35.581857 28.443394 -59.791476 20.027650 0.000000 0.000000 0.000000 5.804720 0.232046 1.882346 -2.862356 19.895238 15.666193 1.378670 1.913221 5.422859 3.262291 33.703152 50.532605 -149.150937 77.414689 150.716457 0.000000 0.000000 0.000000 
